<?xml version="1.0" encoding="UTF-8" standalone="no"?>
<svg xmlns:dc="http://purl.org/dc/elements/1.1/" xmlns:cc="http://creativecommons.org/ns#" xmlns:rdf="http://www.w3.org/1999/02/22-rdf-syntax-ns#" xmlns:svg="http://www.w3.org/2000/svg" xmlns="http://www.w3.org/2000/svg" xmlns:sodipodi="http://sodipodi.sourceforge.net/DTD/sodipodi-0.dtd" xmlns:inkscape="http://www.inkscape.org/namespaces/inkscape" id="b49f4f68-d79e-4476-a14b-b3f27440c724" data-name="Layer 1" width="995.00139" height="836.74873" viewBox="0 0 995.00139 836.74873" version="1.1" sodipodi:docname="coffee1.svg" inkscape:version="1.0.1 (3bc2e813f5, 2020-09-07, custom)">
  <metadata id="metadata121">
    <rdf:RDF>
      <cc:Work rdf:about="">
        <dc:format>image/svg+xml</dc:format>
        <dc:type rdf:resource="http://purl.org/dc/dcmitype/StillImage" />
      </cc:Work>
    </rdf:RDF>
  </metadata>
  <defs id="defs119" />
  <sodipodi:namedview pagecolor="#ffffff" bordercolor="#666666" borderopacity="1" objecttolerance="10" gridtolerance="10" guidetolerance="10" inkscape:pageopacity="0" inkscape:pageshadow="2" inkscape:window-width="2556" inkscape:window-height="1038" id="namedview117" showgrid="false" inkscape:zoom="0.75410931" inkscape:cx="343.24387" inkscape:cy="418.37436" inkscape:window-x="0" inkscape:window-y="14" inkscape:window-maximized="0" inkscape:current-layer="b49f4f68-d79e-4476-a14b-b3f27440c724" inkscape:document-rotation="0" />
  <title id="title2">coffee break</title>
  <path d="m 695.54934,199.35809 -3.09315,22.68683 -19.12127,139.99021 -31.3139,229.25283 -7.83972,57.39756 a 18.283683,18.283683 0 0 1 -18.12022,15.81442 H 407.24552 A 18.289217,18.289217 0 0 1 389.1253,648.73051 l -7.97469,-57.44255 -31.84255,-229.25283 -19.4587,-140.09144 -3.1269,-22.54061 a 18.283514,18.283514 0 0 1 18.10898,-20.80845 h 332.59768 a 18.29546,18.29546 0 0 1 18.12022,20.76346 z" fill="#c74a37" id="path42" style="stroke-width:1" />
  <rect x="348.57697" y="117.85651" width="326.18643" height="60.738163" rx="18.288946" fill="#2f2e41" id="rect44" style="stroke-width:1;fill:#f2f2f2;fill-opacity:1" />
  <path d="M784.5,235.6456v12.22a16.26023,16.26023,0,0,1-16.26,16.26H510.76a16.26023,16.26023,0,0,1-16.26-16.26v-12.19A1526.99976,1526.99976,0,0,0,784.5,235.6456Z" transform="translate(-102.4993 -31.62564)" opacity="0.1" id="path46" />
  <path d="m 682.0007,204.01996 h 0.002 c -0.006,-0.0131 -0.0119,-0.0255 -0.0172,-0.0385 a 18.323372,17.323279 0 0 0 -1.85001,-3.39502 l -0.002,-0.003 c -0.22098,-0.31388 -0.45452,-0.61754 -0.69627,-0.91693 -0.0806,-0.10016 -0.16373,-0.1982 -0.24657,-0.29671 a 18.453138,17.445962 0 0 0 -2.33604,-2.3024 c -0.19002,-0.15628 -0.3816,-0.31038 -0.57843,-0.45928 -0.22103,-0.16669 -0.44338,-0.33046 -0.67267,-0.4876 -0.28667,-0.197 -0.58248,-0.38218 -0.8816,-0.56357 -0.23596,-0.1427 -0.47268,-0.28279 -0.71608,-0.41541 q -0.56362,-0.30819 -1.15154,-0.57975 c -0.1871,-0.0857 -0.37679,-0.16541 -0.56742,-0.24521 q -0.56189,-0.23589 -1.14391,-0.43544 c -0.15638,-0.0538 -0.30952,-0.11271 -0.46795,-0.16253 q -0.80541,-0.25405 -1.64404,-0.43784 c -0.1369,-0.03 -0.27697,-0.0512 -0.41505,-0.0782 q -0.68581,-0.13427 -1.39054,-0.21919 c -0.16998,-0.0205 -0.33916,-0.0414 -0.51066,-0.0573 -0.60181,-0.0564 -1.20948,-0.095 -1.82875,-0.0951 l -0.001,-7e-5 h -333.2917 a 18.376234,17.373256 0 0 0 -18.14802,19.7092 l 0.5293,3.60293 2.60539,17.75639 0.003,2.6e-4 19.49769,132.72128 h -10e-4 l 25.59518,174.21646 14.30785,97.39412 a 18.326089,17.325847 0 0 0 18.15182,14.94227 h 9.93026 a 18.304628,17.305558 0 0 1 -1.03102,-3.75338 l -9.63817,-65.60712 h 236.00793 l 31.37923,-217.1924 H 361.48808 l -19.18564,-130.5968 a 1936.8185,1831.1066 0 0 0 337.64078,-2.02859 l 3.0996,-21.49332 a 18.187925,17.195225 0 0 0 -1.04212,-8.48225 z" opacity="0.1" id="path60" style="stroke-width:1" />
  <path d="m 721.71286,208.96376 a 1935.7401,1935.7401 0 0 1 -420.08531,0 18.287811,18.287811 0 0 1 -18.28781,-18.28781 v -24.16254 a 18.287811,18.287811 0 0 1 18.28781,-18.28781 1721.1949,1721.1949 0 0 0 420.08531,0 18.287811,18.287811 0 0 1 18.28781,18.28781 v 24.16254 a 18.287811,18.287811 0 0 1 -18.28781,18.28781 z" fill="#2f2e41" id="path62" style="stroke-width:1;fill:#f2f2f2;fill-opacity:1" />
  <path d="M 650.61925,582.95338 H 369.44081 a 10.604073,10.604073 0 0 1 -10.47297,-8.94172 l -30.37706,-191.3754 a 10.604085,10.604085 0 0 1 10.47298,-12.26645 h 343.95767 a 10.604085,10.604085 0 0 1 10.45528,12.37428 l -32.40219,191.3754 a 10.604085,10.604085 0 0 1 -10.45527,8.83389 z" fill="#2f2e41" id="path64" style="stroke-width:1;fill:#f2f2f2;fill-opacity:1" />
  <line x1="126.5007" y1="665" x2="817.5007" y2="665" fill="none" stroke="#3f3d56" stroke-miterlimit="10" id="line70" />
</svg>
