<?xml version="1.0" encoding="UTF-8" standalone="no"?>
<svg xmlns:dc="http://purl.org/dc/elements/1.1/" xmlns:cc="http://creativecommons.org/ns#" xmlns:rdf="http://www.w3.org/1999/02/22-rdf-syntax-ns#" xmlns:svg="http://www.w3.org/2000/svg" xmlns="http://www.w3.org/2000/svg" xmlns:sodipodi="http://sodipodi.sourceforge.net/DTD/sodipodi-0.dtd" xmlns:inkscape="http://www.inkscape.org/namespaces/inkscape" id="bfea2134-9924-4ddb-abfc-914d3548447a" data-name="Layer 1" width="904.85779" height="710" viewBox="0 0 904.85779 710" version="1.1" sodipodi:docname="coffee2r2.svg" inkscape:version="1.0.1 (3bc2e813f5, 2020-09-07, custom)">
  <metadata id="metadata165">
    <rdf:RDF>
      <cc:Work rdf:about="">
        <dc:format>image/svg+xml</dc:format>
        <dc:type rdf:resource="http://purl.org/dc/dcmitype/StillImage" />
        <dc:title>hot_beverage</dc:title>
      </cc:Work>
    </rdf:RDF>
  </metadata>
  <defs id="defs163" />
  <sodipodi:namedview pagecolor="#ffffff" bordercolor="#666666" borderopacity="1" objecttolerance="10" gridtolerance="10" guidetolerance="10" inkscape:pageopacity="0" inkscape:pageshadow="2" inkscape:window-width="2556" inkscape:window-height="1038" id="namedview161" showgrid="false" inkscape:zoom="1.7774648" inkscape:cx="387.47566" inkscape:cy="441.1279" inkscape:window-x="0" inkscape:window-y="14" inkscape:window-maximized="0" inkscape:current-layer="bfea2134-9924-4ddb-abfc-914d3548447a" inkscape:document-rotation="0" showguides="true" inkscape:guide-bbox="true">
    <sodipodi:guide position="530.53091,376.37876" orientation="0,-1" id="guide905" />
  </sodipodi:namedview>
  <title id="title2">hot_beverage</title>
  <rect x="477.3758" y="98.54058" width="34.84308" height="13.06615" opacity="0.1" id="rect14" />
  <rect x="477.3758" y="139.91674" width="34.84308" height="13.06615" opacity="0.1" id="rect16" />
  <rect x="477.3758" y="181.29289" width="34.84308" height="13.06615" opacity="0.1" id="rect18" />
  <rect x="477.3758" y="222.66905" width="34.84308" height="13.06615" opacity="0.1" id="rect20" />
  <rect x="477.3758" y="264.0452" width="34.84308" height="13.06615" opacity="0.1" id="rect22" />
  <rect x="477.3758" y="305.42136" width="34.84308" height="13.06615" opacity="0.1" id="rect24" />
  <rect x="688.99807" y="281.44086" width="13.06615" height="34.84308" transform="translate(-123.57299 553.32726) rotate(-50.74509)" opacity="0.1" id="rect40" />
  <rect x="662.81641" y="313.48" width="13.06615" height="34.84308" transform="translate(-157.99678 544.81948) rotate(-50.74509)" opacity="0.1" id="rect42" />
  <rect x="636.63476" y="345.51915" width="13.06615" height="34.84308" transform="matrix(0.63277, -0.77434, 0.77434, 0.63277, -192.42058, 536.3117)" opacity="0.1" id="rect44" />
  <rect x="610.4531" y="377.5583" width="13.06615" height="34.84308" transform="translate(-226.84437 527.80392) rotate(-50.74509)" opacity="0.1" id="rect46" />
  <path id="path52" style="fill:#c74a37;fill-opacity:1" d="m 305.88281,285.45117 0.51172,13.09961 1.32813,34.15625 8.94017,10.22853 42.05885,343.60879 c 77.5102,31.75761 166.84771,28.52692 223.60026,-5.63478 -1.15057,-18.47003 34.98957,-324.17066 36.45305,-332.45686 1.46348,-8.2862 10.88548,-2.68032 11.13485,-19.72696 l 0.63306,-43.27453 z" sodipodi:nodetypes="cccccczscc" />
  <circle cx="513.24574" cy="414.37355" r="5.53018" fill="#d0cde1" id="circle80" style="fill:#f2f2f2;fill-opacity:1" />
  <circle cx="530.66728" cy="505.83663" r="5.53018" fill="#d0cde1" id="circle82" style="fill:#f2f2f2;fill-opacity:1" />
  <circle cx="421.78266" cy="528.7024" r="5.53018" fill="#d0cde1" id="circle84" style="fill:#f2f2f2;fill-opacity:1" />
  <circle cx="477.31381" cy="633.23164" r="5.53018" fill="#d0cde1" id="circle86" style="fill:#f2f2f2;fill-opacity:1" />
  <circle cx="353.18535" cy="549.39048" r="5.53018" fill="#d0cde1" id="circle88" style="fill:#f2f2f2;fill-opacity:1" />
  <circle cx="348.82996" cy="442.68356" r="5.53018" fill="#d0cde1" id="circle90" style="fill:#f2f2f2;fill-opacity:1" />
  <circle cx="578.57651" cy="400.21855" r="5.53018" fill="#d0cde1" id="circle92" style="fill:#f2f2f2;fill-opacity:1" />
  <circle cx="405.44997" cy="627.78741" r="5.53018" fill="#d0cde1" id="circle94" style="fill:#f2f2f2;fill-opacity:1" />
  <circle cx="378.22881" cy="375.17509" r="7.49711" fill="#d0cde1" id="circle96" style="fill:#f2f2f2;fill-opacity:1" />
  <circle cx="452.27035" cy="453.57202" r="7.49711" fill="#d0cde1" id="circle98" style="fill:#f2f2f2;fill-opacity:1" />
  <circle cx="548.08882" cy="611.45472" r="7.49711" fill="#d0cde1" id="circle100" style="fill:#f2f2f2;fill-opacity:1" />
  <ellipse cx="468.20882" cy="285.45096" rx="162.69429" ry="19.73168" fill="#a0616a" id="ellipse102" />
  <path d="M619.81416,176.21907s5.0085,39.10521-43.3593,52.23185S515.631,269.94627,515.631,269.94627s-51.72892,14.19307-20.0771,46.32458c0,0-73.44758,50.67993-1.70794,71.572s265.54613,6.75376,257.42217-32.84276c0,0,10.08046-18.36625-13.28557-22.051,0,0,32.539-44.35936-49.6135-70.08646,0,0,13.36067-13.85779-22.38341-9.91573C665.98563,252.94686,688.26779,162.26874,619.81416,176.21907Z" transform="translate(-147.57111 -95)" fill="#d0cde1" id="path104" />
  <path d="M514.79423,272.17761l-.12936-3.15089c57.47989-2.357,89.04348-20.28675,105.40086-34.91314,17.67178-15.80143,21.88067-31.25173,21.92071-31.4065l3.05233.79388c-.17094.66067-4.40447,16.3697-22.6838,32.79637C605.61567,251.3403,573.36677,269.77594,514.79423,272.17761Z" transform="translate(-147.57111 -95)" fill="#a0616a" id="path106" />
  <path d="M495.00259,318.4646l-.70071-3.07543c.24872-.05621,25.66991-5.83053,95.78957-20.03033,47.998-9.71987,59.49733-19.70847,62.08072-24.79749a4.147,4.147,0,0,0,.57828-2.85135l2.86445-1.31981c.1078.23409,1.00486,2.377-.63064,5.59877-3.47045,6.83694-17.43694,16.97723-64.26679,26.46071C520.64709,312.64023,495.25131,318.40762,495.00259,318.4646Z" transform="translate(-147.57111 -95)" fill="#a0616a" id="path108" />
  <path d="M526.77793,331.45241c-.298,0-.5159-.00077-.64989-.00154l.01694-3.154c1.09265.01387,115.40795.15709,150.589-37.66054,7.476-8.03662,10.8618-17.33991,10.06253-27.65192l3.14473-.24333c.87011,11.22756-2.79746,21.33628-10.89953,30.04513C643.93689,330.51915,537.1115,331.45241,526.77793,331.45241Z" transform="translate(-147.57111 -95)" fill="#a0616a" id="path110" />
  <path d="M660.66926,370.20483c-.10164,0-.16093-.00077-.1771-.00077l.04543-3.154c.53516-.00539,55.09748.358,76.08956-34.90775l2.71044,1.61394C718.02134,369.56726,664.189,370.20483,660.66926,370.20483Z" transform="translate(-147.57111 -95)" fill="#a0616a" id="path112" />
  <path d="M627.43609,174.04138s5.00849,39.10521-43.35931,52.23185-60.82387,41.49535-60.82387,41.49535-51.72893,14.19307-20.0771,46.32457c0,0-73.44759,50.67993-1.708,71.572S767.014,392.41891,758.89,352.82239c0,0,10.08046-18.36625-13.28556-22.051,0,0,32.539-44.35935-49.6135-70.08646,0,0,13.36067-13.85778-22.38342-9.91572C673.60755,250.76917,695.88971,160.09105,627.43609,174.04138Z" transform="translate(-147.57111 -95)" fill="#d0cde1" id="path114" style="fill:#fff5f0;fill-opacity:1" />
  <path d="M522.41615,269.99992l-.12936-3.15089c57.4799-2.357,89.04348-20.28676,105.40086-34.91314,17.67179-15.80143,21.88068-31.25173,21.92072-31.40651l3.05233.79389c-.171.66067-4.40447,16.36969-22.6838,32.79637C613.23759,249.16261,580.9887,267.59825,522.41615,269.99992Z" transform="translate(-147.57111 -95)" fill="#a0616a" id="path116" />
  <path d="M502.62452,316.28691l-.70071-3.07543c.24871-.05621,25.66991-5.83053,95.78956-20.03034,47.998-9.71986,59.49733-19.70847,62.08072-24.79748a4.147,4.147,0,0,0,.57828-2.85136l2.86445-1.3198c.1078.23409,1.00487,2.377-.63064,5.59876-3.47045,6.837-17.43693,16.97724-64.26679,26.46072C528.269,310.46254,502.87323,316.22993,502.62452,316.28691Z" transform="translate(-147.57111 -95)" fill="#a0616a" id="path118" />
  <path d="M534.39986,329.27471c-.298,0-.51591-.00077-.64989-.00154l.01694-3.154c1.09264.01386,115.40794.15709,150.589-37.66054,7.47606-8.03662,10.8618-17.33992,10.06253-27.65192l3.14473-.24333c.87011,11.22756-2.79746,21.33628-10.89953,30.04512C651.55881,328.34146,544.73343,329.27471,534.39986,329.27471Z" transform="translate(-147.57111 -95)" fill="#a0616a" id="path120" />
  <path d="M668.29118,368.02714c-.10164,0-.16093-.00077-.1771-.00077l.04543-3.154c.53516-.00539,55.09748.358,76.08956-34.90775l2.71045,1.61394C725.64326,367.38957,671.81091,368.02714,668.29118,368.02714Z" transform="translate(-147.57111 -95)" fill="#a0616a" id="path122" />
  <rect style="opacity:0.998971;fill:#c74a37;fill-rule:evenodd;stroke-width:10.0006;stroke-linejoin:round;stop-color:#000000" id="rect890" width="41.159836" height="0.11736838" x="768.60754" y="564.62372" />
</svg>
