<?xml version="1.0" encoding="UTF-8" standalone="no"?>
<svg xmlns:dc="http://purl.org/dc/elements/1.1/" xmlns:cc="http://creativecommons.org/ns#" xmlns:rdf="http://www.w3.org/1999/02/22-rdf-syntax-ns#" xmlns:svg="http://www.w3.org/2000/svg" xmlns="http://www.w3.org/2000/svg" xmlns:sodipodi="http://sodipodi.sourceforge.net/DTD/sodipodi-0.dtd" xmlns:inkscape="http://www.inkscape.org/namespaces/inkscape" id="bfea2134-9924-4ddb-abfc-914d3548447a" data-name="Layer 1" width="904.85779" height="710" viewBox="0 0 904.85779 710" version="1.1" sodipodi:docname="coffee2r2.svg" inkscape:version="1.0.1 (3bc2e813f5, 2020-09-07, custom)">
  <metadata id="metadata165">
    <rdf:RDF>
      <cc:Work rdf:about="">
        <dc:format>image/svg+xml</dc:format>
        <dc:type rdf:resource="http://purl.org/dc/dcmitype/StillImage" />
        <dc:title>hot_beverage</dc:title>
      </cc:Work>
    </rdf:RDF>
  </metadata>
  <defs id="defs163" />
  <sodipodi:namedview pagecolor="#ffffff" bordercolor="#666666" borderopacity="1" objecttolerance="10" gridtolerance="10" guidetolerance="10" inkscape:pageopacity="0" inkscape:pageshadow="2" inkscape:window-width="1276" inkscape:window-height="1038" id="namedview161" showgrid="true" inkscape:zoom="1.2568574" inkscape:cx="466.38968" inkscape:cy="496.38005" inkscape:window-x="1280" inkscape:window-y="14" inkscape:window-maximized="0" inkscape:current-layer="bfea2134-9924-4ddb-abfc-914d3548447a" inkscape:document-rotation="0" showguides="true" inkscape:guide-bbox="true">
    <sodipodi:guide position="530.53091,376.37876" orientation="0,-1" id="guide905" />
    <inkscape:grid type="xygrid" id="grid865" />
  </sodipodi:namedview>
  <title id="title2">hot_beverage</title>
  <rect x="453.69928" y="21.060425" width="39.2686" height="14.72572" opacity="0.1" id="rect14" style="stroke-width:1" />
  <rect x="453.69928" y="67.691887" width="39.2686" height="14.72572" opacity="0.1" id="rect16" style="stroke-width:1" />
  <rect x="453.69928" y="114.32336" width="39.2686" height="14.72572" opacity="0.1" id="rect18" style="stroke-width:1" />
  <rect x="453.69928" y="160.95483" width="39.2686" height="14.72572" opacity="0.1" id="rect20" style="stroke-width:1" />
  <rect x="453.69928" y="207.58629" width="39.2686" height="14.72572" opacity="0.1" id="rect22" style="stroke-width:1" />
  <rect x="453.69928" y="254.21774" width="39.2686" height="14.72572" opacity="0.1" id="rect24" style="stroke-width:1" />
  <rect x="221.84059" y="481.71646" width="14.72572" height="39.2686" transform="rotate(-50.74509)" opacity="0.1" id="rect40" style="stroke-width:1" />
  <rect x="175.20915" y="481.71646" width="14.72572" height="39.2686" transform="rotate(-50.74509)" opacity="0.1" id="rect42" style="stroke-width:1" />
  <rect x="128.57759" y="481.71518" width="14.725722" height="39.268604" transform="rotate(-50.745222)" opacity="0.1" id="rect44" style="stroke-width:1" />
  <rect x="81.946243" y="481.71646" width="14.72572" height="39.2686" transform="rotate(-50.74509)" opacity="0.1" id="rect46" style="stroke-width:1" />
  <path id="path52" style="fill:#c74a37;fill-opacity:1;stroke-width:1" d="m 260.42445,231.71109 0.57672,14.76342 1.49682,38.49455 10.07568,11.52768 C 272.57367,296.49674 300,670 320,680 c 60,30 190,30 250,0 20,-10 41.40863,-367.9467 43.058,-377.28536 1.64936,-9.33866 12.26808,-3.02076 12.54912,-22.23254 l 0.71347,-48.77096 z" sodipodi:nodetypes="ccccsszscc" />
  <circle cx="494.12515" cy="377.00827" fill="#d0cde1" id="circle80" style="fill:#f2f2f2;fill-opacity:1;stroke-width:1" r="6.232585" />
  <circle cx="513.75952" cy="480.08838" fill="#d0cde1" id="circle82" style="fill:#f2f2f2;fill-opacity:1;stroke-width:1" r="6.232585" />
  <circle cx="391.04507" cy="505.8584" fill="#d0cde1" id="circle84" style="fill:#f2f2f2;fill-opacity:1;stroke-width:1" r="6.232585" />
  <circle cx="453.62943" cy="623.66418" fill="#d0cde1" id="circle86" style="fill:#f2f2f2;fill-opacity:1;stroke-width:1" r="6.232585" />
  <circle cx="313.73505" cy="529.17413" fill="#d0cde1" id="circle88" style="fill:#f2f2f2;fill-opacity:1;stroke-width:1" r="6.232585" />
  <circle cx="308.82642" cy="408.91403" fill="#d0cde1" id="circle90" style="fill:#f2f2f2;fill-opacity:1;stroke-width:1" r="6.232585" />
  <circle cx="567.75385" cy="361.05539" fill="#d0cde1" id="circle92" style="fill:#f2f2f2;fill-opacity:1;stroke-width:1" r="6.232585" />
  <circle cx="372.63794" cy="617.52844" fill="#d0cde1" id="circle94" style="fill:#f2f2f2;fill-opacity:1;stroke-width:1" r="6.232585" />
  <circle cx="341.95935" cy="332.83112" fill="#d0cde1" id="circle96" style="fill:#f2f2f2;fill-opacity:1;stroke-width:1" r="8.4493399" />
  <circle cx="425.40512" cy="421.18546" fill="#d0cde1" id="circle98" style="fill:#f2f2f2;fill-opacity:1;stroke-width:1" r="8.4493399" />
  <circle cx="533.39374" cy="599.12128" fill="#d0cde1" id="circle100" style="fill:#f2f2f2;fill-opacity:1;stroke-width:1" r="8.4493399" />
  <ellipse cx="443.36798" cy="231.71085" rx="183.35858" ry="22.237858" fill="#a0616a" id="ellipse102" style="stroke-width:1" />
  <path d="m 447.9146,1.5388609 c 0,0 5.64465,44.0720791 -48.86649,58.8659731 -54.51113,14.793893 -68.54928,46.765796 -68.54928,46.765796 0,0 -58.29916,15.99577 -22.62715,52.20841 0,0 -82.77638,57.11694 -1.92487,80.66256 80.8515,23.54564 299.27393,7.61159 290.11812,-37.01421 0,0 11.36082,-20.699 -14.973,-24.85176 0,0 36.67187,-49.99358 -55.91506,-78.988356 0,0 15.05765,-15.61791 -25.2264,-11.17515 -2e-5,-5.3e-5 25.11227,-102.195465 -52.03587,-86.4732631 z" fill="#d0cde1" id="path104" style="stroke-width:1" />
  <path d="M 329.55579,109.68538 329.41,106.13429 c 64.78057,-2.65638 100.35315,-22.863436 118.78813,-39.347565 19.91632,-17.808416 24.6598,-35.221105 24.70493,-35.395532 l 3.44001,0.894712 c -0.19265,0.744584 -4.96389,18.448865 -25.56494,36.961931 -18.8654,16.953623 -55.21033,37.730834 -121.22234,40.437544 z" fill="#a0616a" id="path106" style="stroke-width:1" />
  <path d="m 307.25035,161.85142 -0.78971,-3.46605 c 0.28031,-0.0633 28.93032,-6.57109 107.95609,-22.57445 54.09437,-10.95441 67.05426,-22.21169 69.96577,-27.94708 a 4.6737228,4.6737228 0 0 0 0.65173,-3.21351 l 3.22827,-1.48744 c 0.12149,0.26381 1.1325,2.6789 -0.71073,6.30988 -3.91125,7.70532 -19.65166,19.13356 -72.42951,29.82156 -78.97023,15.99295 -107.5916,22.49287 -107.87191,22.55709 z" fill="#a0616a" id="path108" style="stroke-width:1" />
  <path d="m 343.06157,176.48885 c -0.33585,0 -0.58143,-8.7e-4 -0.73243,-0.002 l 0.0191,-3.55459 c 1.23144,0.0157 130.06625,0.17704 169.71576,-42.44392 8.42555,-9.05738 12.24139,-19.54231 11.3406,-31.164077 l 3.54415,-0.274232 c 0.98063,12.653599 -3.15277,24.046259 -12.28391,33.861249 -39.56358,42.52552 -159.95719,43.57731 -171.60326,43.57731 z" fill="#a0616a" id="path110" style="stroke-width:1" />
  <path d="m 493.95884,220.16333 c -0.11455,0 -0.18137,-8.7e-4 -0.1996,-8.7e-4 l 0.0512,-3.5546 c 0.60313,-0.005 62.09557,0.40347 85.75392,-39.34148 l 3.0547,1.81893 c -24.02369,40.35947 -84.69344,41.07802 -88.66023,41.07802 z" fill="#a0616a" id="path112" style="stroke-width:1" />
  <path d="m 456.50462,-0.91542365 c 0,0 5.64463,44.07207965 -48.86651,58.86597365 -54.51113,14.793892 -68.54929,46.76579 -68.54929,46.76579 0,0 -58.29917,15.99578 -22.62715,52.2084 0,0 -82.77639,57.11694 -1.92494,80.66257 80.85146,23.54564 299.27401,7.61158 290.11815,-37.01421 0,0 11.36081,-20.699 -14.97299,-24.85176 0,0 36.67187,-49.99357 -55.91506,-78.988361 0,0 15.05765,-15.6179 -25.22641,-11.175139 3e-5,-5.3e-5 25.11232,-102.195467 -52.0358,-86.47326365 z" fill="#d0cde1" id="path114" style="fill:#fff5f0;fill-opacity:1;stroke-width:1" />
  <path d="M 338.14579,107.2311 338,103.68 c 64.78058,-2.65637 100.35315,-22.863442 118.78813,-39.34756 19.91634,-17.808416 24.65981,-35.221105 24.70494,-35.395544 l 3.44001,0.894725 c -0.19272,0.744583 -4.96389,18.448853 -25.56493,36.961934 -18.86542,16.95362 -55.21034,37.730835 -121.22236,40.437545 z" fill="#a0616a" id="path116" style="stroke-width:1" />
  <path d="m 315.84036,159.39713 -0.78971,-3.46605 c 0.2803,-0.0633 28.93032,-6.57108 107.95608,-22.57445 54.09437,-10.95441 67.05426,-22.2117 69.96578,-27.94708 a 4.6737228,4.6737228 0 0 0 0.65172,-3.21352 l 3.22827,-1.48743 c 0.1215,0.26382 1.13251,2.67891 -0.71073,6.30988 -3.91125,7.70538 -19.65165,19.13357 -72.42951,29.82157 -78.97024,15.99294 -107.5916,22.49286 -107.8719,22.55708 z" fill="#a0616a" id="path118" style="stroke-width:1" />
  <path d="m 351.65158,174.03455 c -0.33585,0 -0.58144,-8.6e-4 -0.73243,-0.002 l 0.0191,-3.55461 c 1.23143,0.0157 130.06625,0.17706 169.71576,-42.4439 8.42562,-9.05738 12.24139,-19.54233 11.34061,-31.164082 l 3.54415,-0.274232 c 0.98062,12.653594 -3.15278,24.046254 -12.28392,33.861234 -39.56359,42.52554 -159.95718,43.57732 -171.60325,43.57732 z" fill="#a0616a" id="path120" style="stroke-width:1" />
  <path d="m 502.54884,217.70904 c -0.11455,0 -0.18137,-8.6e-4 -0.19959,-8.6e-4 l 0.0512,-3.5546 c 0.60314,-0.005 62.09557,0.40347 85.75392,-39.34149 l 3.05471,1.81893 c -24.02369,40.35948 -84.69345,41.07802 -88.66023,41.07802 z" fill="#a0616a" id="path122" style="stroke-width:1" />
  <rect style="opacity:0.998971;fill:#c74a37;fill-rule:evenodd;stroke-width:10.0006;stroke-linejoin:round;stop-color:#000000" id="rect890" width="43.354412" height="0.12362627" x="784.41296" y="556.94934" />
</svg>
