<?xml version="1.0" encoding="UTF-8" standalone="no"?>
<svg xmlns:dc="http://purl.org/dc/elements/1.1/" xmlns:cc="http://creativecommons.org/ns#" xmlns:rdf="http://www.w3.org/1999/02/22-rdf-syntax-ns#" xmlns:svg="http://www.w3.org/2000/svg" xmlns="http://www.w3.org/2000/svg" xmlns:sodipodi="http://sodipodi.sourceforge.net/DTD/sodipodi-0.dtd" xmlns:inkscape="http://www.inkscape.org/namespaces/inkscape" id="bfea2134-9924-4ddb-abfc-914d3548447a" data-name="Layer 1" width="904.85779" height="710" viewBox="0 0 904.85779 710" version="1.1" sodipodi:docname="coffee2r.svg" inkscape:version="1.0.1 (3bc2e813f5, 2020-09-07, custom)">
  <metadata id="metadata165">
    <rdf:RDF>
      <cc:Work rdf:about="">
        <dc:format>image/svg+xml</dc:format>
        <dc:type rdf:resource="http://purl.org/dc/dcmitype/StillImage" />
        <dc:title>hot_beverage</dc:title>
      </cc:Work>
    </rdf:RDF>
  </metadata>
  <defs id="defs163" />
  <sodipodi:namedview pagecolor="#ffffff" bordercolor="#666666" borderopacity="1" objecttolerance="10" gridtolerance="10" guidetolerance="10" inkscape:pageopacity="0" inkscape:pageshadow="2" inkscape:window-width="1276" inkscape:window-height="1038" id="namedview161" showgrid="true" inkscape:zoom="0.31421435" inkscape:cx="556.52399" inkscape:cy="555.83192" inkscape:window-x="1280" inkscape:window-y="14" inkscape:window-maximized="0" inkscape:current-layer="bfea2134-9924-4ddb-abfc-914d3548447a" inkscape:document-rotation="0">
    <inkscape:grid type="xygrid" id="grid904" />
  </sodipodi:namedview>
  <title id="title2">hot_beverage</title>
  <path d="m 641.60092,182.71804 -3.40031,24.69945 -20.70189,152.19664 -34.10311,249.29448 -8.50078,62.39862 a 19.88238,19.880125 0 0 1 -19.7018,17.1996 H 328.0723 a 19.888399,19.886143 0 0 1 -19.7018,-17.1996 l -8.60079,-62.39862 -34.70316,-249.29448 -21.10193,-152.29664 -3.40031,-24.49946 a 19.882196,19.879941 0 0 1 19.7018,-22.69949 h 361.63301 a 19.895187,19.892931 0 0 1 19.7018,22.5995 z" fill="#c74a37" id="path42" style="stroke-width:0.999999" />
  <rect x="264.24149" y="94.120003" width="354.70767" height="66.041527" rx="19.888103" fill="#2f2e41" id="rect44" style="fill:#f2f2f2;fill-opacity:1;stroke-width:0.999999" />
  <path d="m 626.89958,187.81792 v 13.29971 a 17.681999,17.679994 0 0 1 -17.70162,17.69961 H 329.1724 a 17.681999,17.679994 0 0 1 -17.60161,-17.69961 v -13.29971 a 1660.5183,1660.33 0 0 0 315.32879,0 z" opacity="0.1" id="path46" style="stroke-width:0.999999" />
  <path d="m 626.89958,187.81792 v 0 c 0,0 0,0 0,-0.1 A 19.92554,18.835864 0 0 0 624.8994,184.118 h -0.10001 c -0.20002,-0.4 -0.40004,-0.69999 -0.70007,-0.99998 -0.10001,-0.2 -0.20002,-0.3 -0.30002,-0.39999 a 20.066652,18.969259 0 0 0 -2.50023,-2.49995 c -0.20002,-0.1 -0.40004,-0.29999 -0.60006,-0.49999 -0.30002,-0.19999 -0.50004,-0.29999 -0.80007,-0.49999 -0.30003,-0.19999 -0.60006,-0.39999 -0.90008,-0.59998 -0.30003,-0.2 -0.50005,-0.3 -0.80008,-0.49999 q -0.60005,-0.29999 -1.30011,-0.59999 c -0.20002,-0.1 -0.40004,-0.19999 -0.60006,-0.29999 q -0.60005,-0.2 -1.20011,-0.39999 c -0.20002,-0.1 -0.40004,-0.2 -0.50004,-0.2 q -0.90009,-0.29999 -1.80017,-0.49999 c -0.20002,0 -0.30003,0 -0.50004,-0.1 q -0.70007,-0.1 -1.50014,-0.2 c -0.20002,0 -0.40004,-0.1 -0.50005,-0.1 -0.70006,0 -1.40012,-0.1 -2.00018,-0.1 v 0 H 245.86479 a 19.983024,18.890204 0 0 0 -19.8018,21.49954 l 0.60005,3.8999 2.80026,19.29957 v 0 L 250.66523,364.614 v 0 l 27.90255,189.39581 15.50141,105.89766 A 19.928494,18.838657 0 0 0 313.871,676.2071 h 10.80099 a 19.905157,18.816596 0 0 1 -1.20011,-4.0999 L 313.07093,600.80879 H 569.69436 L 603.79747,364.61402 H 278.36776 L 257.46585,222.61716 a 2106.171,1990.99 0 0 0 367.13352,-2.19995 l 3.40031,-23.39949 a 19.77825,18.696629 0 0 0 -1.1001,-9.1998 z" opacity="0.1" id="path60" style="stroke-width:0.999999" />
  <path d="m 670.10352,193.2178 a 2104.9983,2104.7596 0 0 1 -456.8417,0 A 19.88687,19.884614 0 0 1 193.36,173.31824 v -26.29941 a 19.88687,19.884614 0 0 1 19.90182,-19.89956 1871.6936,1871.4813 0 0 0 456.8417,0 19.88687,19.884614 0 0 1 19.80181,19.89956 v 26.29941 a 19.88687,19.884614 0 0 1 -19.80181,19.89956 z" fill="#2f2e41" id="path62" style="fill:#f2f2f2;fill-opacity:1;stroke-width:0.999999" />
  <path d="M 592.79647,599.80881 H 286.96855 a 11.531277,11.529968 0 0 1 -11.40105,-9.69978 l -33.00301,-208.0954 a 11.53129,11.529981 0 0 1 11.40104,-13.29971 h 374.03415 a 11.53129,11.529981 0 0 1 11.40104,13.39971 l -35.30322,208.0954 a 11.53129,11.529981 0 0 1 -11.30103,9.59978 z" fill="#2f2e41" id="path64" style="fill:#f2f2f2;fill-opacity:1;stroke-width:0.999999" />
</svg>
