<?xml version="1.0" encoding="UTF-8" standalone="no"?>
<svg xmlns:dc="http://purl.org/dc/elements/1.1/" xmlns:cc="http://creativecommons.org/ns#" xmlns:rdf="http://www.w3.org/1999/02/22-rdf-syntax-ns#" xmlns:svg="http://www.w3.org/2000/svg" xmlns="http://www.w3.org/2000/svg" xmlns:sodipodi="http://sodipodi.sourceforge.net/DTD/sodipodi-0.dtd" xmlns:inkscape="http://www.inkscape.org/namespaces/inkscape" id="bfea2134-9924-4ddb-abfc-914d3548447a" data-name="Layer 1" width="904.85779" height="710" viewBox="0 0 904.85779 710" version="1.1" sodipodi:docname="coffee1.svg" inkscape:version="1.0.1 (3bc2e813f5, 2020-09-07, custom)">
  <metadata id="metadata165">
    <rdf:RDF>
      <cc:Work rdf:about="">
        <dc:format>image/svg+xml</dc:format>
        <dc:type rdf:resource="http://purl.org/dc/dcmitype/StillImage" />
        <dc:title>hot_beverage</dc:title>
      </cc:Work>
    </rdf:RDF>
  </metadata>
  <defs id="defs163" />
  <sodipodi:namedview pagecolor="#ffffff" bordercolor="#666666" borderopacity="1" objecttolerance="10" gridtolerance="10" guidetolerance="10" inkscape:pageopacity="0" inkscape:pageshadow="2" inkscape:window-width="1276" inkscape:window-height="1038" id="namedview161" showgrid="true" inkscape:zoom="0.31421435" inkscape:cx="556.52399" inkscape:cy="555.83192" inkscape:window-x="1280" inkscape:window-y="14" inkscape:window-maximized="0" inkscape:current-layer="bfea2134-9924-4ddb-abfc-914d3548447a" inkscape:document-rotation="0">
    <inkscape:grid type="xygrid" id="grid904" />
  </sodipodi:namedview>
  <title id="title2">hot_beverage</title>
  <path d="m 619.29717,186.6556 -3.1856,23.13982 -19.39469,142.58633 -31.9497,233.55301 -7.96401,58.45852 a 18.626926,18.624813 0 0 1 -18.45775,16.11355 h -212.7794 a 18.632565,18.630451 0 0 1 -18.45775,-16.11355 l -8.0577,-58.45852 -32.51186,-233.55301 -19.76947,-142.68001 -3.1856,-22.95247 a 18.626753,18.624641 0 0 1 18.45775,-21.26615 h 338.79803 a 18.638924,18.636811 0 0 1 18.45775,21.17248 z" fill="#c74a37" id="path42" style="stroke-width:1" />
  <rect x="265.76575" y="103.65199" width="332.31" height="61.871395" rx="18.632288" fill="#2f2e41" id="rect44" style="fill:#f2f2f2;fill-opacity:1;stroke-width:1" />
  <path d="m 605.52413,191.43345 v 12.45991 a 16.565486,16.563607 0 0 1 -16.58387,16.58199 H 326.59665 a 16.565486,16.563607 0 0 1 -16.49017,-16.58199 v -12.45991 a 1555.6664,1555.49 0 0 0 295.41765,0 z" opacity="0.1" id="path46" style="stroke-width:1" />
  <path d="m 605.52413,191.43345 v 0 c 0,0 0,0 0,-0.0937 a 18.667361,17.646491 0 0 0 -1.87388,-3.3726 h -0.0937 c -0.18739,-0.37475 -0.37478,-0.65579 -0.65586,-0.93684 -0.0937,-0.18737 -0.18739,-0.28106 -0.28108,-0.37473 a 18.799562,17.771463 0 0 0 -2.34235,-2.3421 c -0.18739,-0.0937 -0.37478,-0.28104 -0.56217,-0.46842 -0.28108,-0.18736 -0.46847,-0.28104 -0.74955,-0.46841 -0.28109,-0.18737 -0.56217,-0.37474 -0.84325,-0.5621 -0.28108,-0.18737 -0.46847,-0.28106 -0.74956,-0.46842 q -0.56216,-0.28105 -1.21801,-0.5621 c -0.18739,-0.0937 -0.37478,-0.18736 -0.56217,-0.28105 q -0.56216,-0.18737 -1.12433,-0.37473 c -0.18739,-0.0937 -0.37478,-0.18737 -0.46847,-0.18737 q -0.84325,-0.28105 -1.6865,-0.46842 c -0.18739,0 -0.28108,0 -0.46846,-0.0937 q -0.65587,-0.0937 -1.40542,-0.18737 c -0.18739,0 -0.37478,-0.0937 -0.46847,-0.0937 -0.65586,0 -1.31171,-0.0937 -1.87388,-0.0937 v 0 h -339.5476 a 18.721215,17.6974 0 0 0 -18.55143,20.14197 l 0.56216,3.65365 2.62344,18.08091 v 0 l 19.86315,135.18534 v 0 L 279.18741,534.5025 293.71,633.71335 a 18.670128,17.649108 0 0 0 18.55144,15.2704 h 10.11898 a 18.648265,17.62844 0 0 1 -1.12433,-3.84101 l -9.7442,-66.79634 h 240.41919 l 31.9497,-221.28048 H 279.00002 l -19.58208,-133.0306 a 1973.1788,1865.2708 0 0 0 343.95122,-2.06103 l 3.1856,-21.92195 a 18.529371,17.516048 0 0 0 -1.03063,-8.61889 z" opacity="0.1" id="path60" style="stroke-width:1" />
  <path d="m 646,196.49236 a 1972.0802,1971.8565 0 0 1 -427.99486,0 A 18.631132,18.629019 0 0 1 199.36,177.84934 v -24.63876 a 18.631132,18.629019 0 0 1 18.64514,-18.64302 1753.5073,1753.3084 0 0 0 427.99486,0 18.631132,18.629019 0 0 1 18.55144,18.64302 v 24.63876 A 18.631132,18.629019 0 0 1 646,196.49236 Z" fill="#2f2e41" id="path62" style="fill:#f2f2f2;fill-opacity:1;stroke-width:1" />
  <path d="M 573.57443,577.40956 H 287.05772 a 10.803145,10.801919 0 0 1 -10.68114,-9.0873 L 245.45752,373.36685 a 10.803158,10.801931 0 0 1 10.68113,-12.45991 h 350.41611 a 10.803158,10.801931 0 0 1 10.68114,12.5536 l -33.07403,194.95541 a 10.803158,10.801931 0 0 1 -10.58744,8.99361 z" fill="#2f2e41" id="path64" style="fill:#f2f2f2;fill-opacity:1;stroke-width:1" />
</svg>
