<?xml version="1.0" encoding="UTF-8" standalone="no"?>
<svg xmlns:dc="http://purl.org/dc/elements/1.1/" xmlns:cc="http://creativecommons.org/ns#" xmlns:rdf="http://www.w3.org/1999/02/22-rdf-syntax-ns#" xmlns:svg="http://www.w3.org/2000/svg" xmlns="http://www.w3.org/2000/svg" xmlns:sodipodi="http://sodipodi.sourceforge.net/DTD/sodipodi-0.dtd" xmlns:inkscape="http://www.inkscape.org/namespaces/inkscape" id="a525f49c-389c-445f-ad2c-d5c197cff10c" data-name="Layer 1" width="760" height="677.41447" viewBox="0 0 760 677.41447" version="1.1" sodipodi:docname="coffee3.svg" inkscape:version="1.0.1 (3bc2e813f5, 2020-09-07, custom)">
  <metadata id="metadata65">
    <rdf:RDF>
      <cc:Work rdf:about="">
        <dc:format>image/svg+xml</dc:format>
        <dc:type rdf:resource="http://purl.org/dc/dcmitype/StillImage" />
      </cc:Work>
    </rdf:RDF>
  </metadata>
  <defs id="defs63" />
  <sodipodi:namedview pagecolor="#ffffff" bordercolor="#666666" borderopacity="1" objecttolerance="10" gridtolerance="10" guidetolerance="10" inkscape:pageopacity="0" inkscape:pageshadow="2" inkscape:window-width="1276" inkscape:window-height="1038" id="namedview61" showgrid="false" inkscape:zoom="0.93148288" inkscape:cx="-31.63193" inkscape:cy="452.9282" inkscape:window-x="1280" inkscape:window-y="14" inkscape:window-maximized="0" inkscape:current-layer="a525f49c-389c-445f-ad2c-d5c197cff10c" inkscape:document-rotation="0" />
  <title id="title2">cup_of_tea</title>
  <path d="M859.79064,738.38466c0,12.57275-116.406,50.32258-260,50.32258s-260-37.74983-260-50.32258,116.406,4.79262,260,4.79262S859.79064,725.81191,859.79064,738.38466Z" transform="translate(-220 -111.29276)" fill="#3f3d56" id="path8" />
  <path d="M859.79064,738.38466c0,12.57275-116.406,50.32258-260,50.32258s-260-37.74983-260-50.32258,116.406,4.79262,260,4.79262S859.79064,725.81191,859.79064,738.38466Z" transform="translate(-220 -111.29276)" opacity="0.2" id="path10" />
  <ellipse cx="379.79064" cy="627.09189" rx="260" ry="22.76498" fill="#3f3d56" id="ellipse12" />
  <ellipse cx="377.79064" cy="629.3707" rx="107" ry="10" opacity="0.2" id="ellipse14" />
  <path d="M806.17052,510.92322H689.29064v.74024h-279.5v40.50018c0,104.10559,84.39423,188.49982,188.49982,188.49982h.00036a188.40822,188.40822,0,0,0,162.83246-93.5h45.04724a68.12012,68.12012,0,1,0,0-136.24024Zm0,115.24024H771.70306a187.87964,187.87964,0,0,0,15.08758-73.99982V531.92322h19.37988a47.12012,47.12012,0,1,1,0,94.24024Z" transform="translate(-220 -111.29276)" fill="#3f3d56" id="path16" />
  <path d="M427.29064,529.16346v23c0,94.29,76.71045,171,171,171,94.29,0,171-76.71,171-171v-23Z" transform="translate(-220 -111.29276)" fill="#6c63ff" id="path18" style="fill:#357bc7;fill-opacity:1" />
  <circle cx="282.79064" cy="452.3707" r="11" fill="#e6e6e6" id="circle26" />
  <circle cx="484.79064" cy="493.3707" r="11" fill="#e6e6e6" id="circle28" />
  <circle cx="429.79064" cy="551.3707" r="8" fill="#e6e6e6" id="circle30" />
  <path d="M364.60985,734.89808c32.6679,7.28769,68.72037,1.90328,68.72037,1.90328s-16.91266-17.20008-49.58055-24.48776-68.72037-1.90329-68.72037-1.90329S331.942,727.61039,364.60985,734.89808Z" transform="translate(-220 -111.29276)" fill="#e6e6e6" id="path32" />
  <path d="M367.83212,747.1873c35.56617,1.02625,65.74587-10.43588,65.74587-10.43588a173.12291,173.12291,0,0,0-63.05059-14.15228c-35.56617-1.02625-65.74588,10.43588-65.74588,10.43588A173.123,173.123,0,0,0,367.83212,747.1873Z" transform="translate(-220 -111.29276)" fill="#6c63ff" id="path34" style="fill:#357bc7;fill-opacity:1" />
  <path d="M370.35844,722.64051c25.40839,12.8098,62.82729,14.41132,62.82729,14.41132s-3.77625-19.16725-29.18465-31.977-62.82729-14.41132-62.82729-14.41132S344.95,709.83072,370.35844,722.64051Z" transform="translate(-220 -111.29276)" fill="#6c63ff" id="path36" style="fill:#357bc7;fill-opacity:1" />
  <circle cx="378.07086" cy="491.68912" r="11" fill="#e6e6e6" id="circle28-3" />
  <circle cx="308.07086" cy="541.68909" r="11" fill="#e6e6e6" id="circle28-3-6" />
  <circle cx="457.77664" cy="446.57181" fill="#e6e6e6" id="circle30-7" r="8" />
  <path style="fill:#f2ebfb;fill-opacity:0.56960624;fill-rule:evenodd;stroke-width:10.0006;stroke-linejoin:round;stop-color:#000000" id="path935" d="m 243.0864,406.85256 c 9.64487,-5.66002 19.38655,-11.15819 28.9346,-16.98006 2.25774,-1.37664 3.95782,-3.50862 5.97506,-5.21837 4.13823,-3.50743 7.89812,-6.83354 11.51997,-10.89208 6.13337,-6.60218 10.56502,-14.48035 13.88598,-22.80803 2.56734,-9.23969 3.62971,-18.81487 4.5081,-28.33928 1.08649,-9.28452 0.89649,-18.43293 -0.6701,-27.62416 -1.78309,-8.0015 -5.9069,-15.31742 -10.54924,-21.99539 -7.09979,-10.46796 -18.58764,-15.95771 -29.79213,-20.96552 -13.02534,-5.56629 -26.49494,-9.99522 -39.86931,-14.63098 -4.32821,-1.93042 -9.93498,-3.38422 -12.63649,-7.63192 -1.99075,-3.56933 -2.42749,-7.6677 -2.75116,-11.66897 0.0873,-4.39376 1.61753,-8.16904 3.37202,-12.09088 1.88309,-3.92966 5.40019,-6.16865 8.40169,-9.10118 4.15139,-3.16903 7.97558,-6.70864 11.45732,-10.59299 2.83182,-3.44362 5.51682,-6.67009 7.46258,-10.72916 2.0623,-4.59666 2.48254,-9.54234 2.71368,-14.50028 -0.65193,-4.72462 -0.84843,-9.58277 -1.98307,-14.22256 -0.96151,-4.22563 -4.60151,-6.93724 -7.25158,-10.13141 -3.01927,-3.90629 -5.44466,-8.19954 -8.51472,-12.07672 -2.87692,-3.92154 -4.89953,-5.53903 -2.1545,-10.04105 0,0 -28.68704,13.22934 -28.68704,13.22934 v 0 c -1.54946,5.52653 0.44109,8.63454 3.89629,12.90559 3.09993,3.881 5.37986,8.25134 8.37624,12.2042 2.31144,2.88017 5.6189,5.21737 6.50757,8.93334 1.0395,4.33066 1.45411,8.86218 1.70861,13.29686 -0.36617,4.60069 -1.0472,9.18343 -3.3264,13.28004 -2.22624,3.63448 -5.10424,6.75142 -7.82716,10.01637 -3.58069,3.68918 -7.51245,6.98864 -11.42355,10.31747 -3.40384,2.95122 -6.31503,6.08891 -7.99553,10.35821 -1.81482,4.31878 -2.9011,8.80524 -2.70467,13.52991 0.48123,4.50654 1.2393,9.02615 3.35262,13.09475 3.35652,5.01598 9.23467,6.91718 14.72761,8.81211 13.62754,4.05609 27.22216,8.32418 40.30953,13.92306 10.57811,4.83688 21.32236,10.21117 27.98462,20.16282 4.38575,6.33754 8.15413,13.30261 9.80467,20.89007 1.67551,8.86458 1.55942,17.73844 0.61531,26.70674 -0.91834,9.33182 -2.11447,18.76549 -5.24304,27.64918 -3.52921,7.88286 -7.77828,15.404 -13.88312,21.61636 -4.33253,4.38369 -3.19422,3.43622 -7.86386,7.36005 -9.78986,8.22627 -32.88485,23.69731 14.4397,-6.03868 0,0 -24.8271,19.9932 -24.8271,19.9932 z" />
  <path style="fill:#f2ebfb;fill-opacity:0.56960624;fill-rule:evenodd;stroke-width:10.0006;stroke-linejoin:round;stop-color:#000000" id="path937" d="m 403.74462,372.59647 c 3.14673,-12.15798 7.36773,-24.02112 12.43593,-35.50397 3.47523,-6.37319 6.84071,-12.90211 12.13363,-17.99389 2.38257,-2.29204 4.50643,-3.73035 7.16418,-5.70206 8.4734,-6.47286 17.00013,-13.26989 24.0505,-21.30121 7.99423,-10.23911 7.68221,-21.27773 7.08766,-33.58777 -0.66336,-9.45473 -3.30799,-18.87788 -9.40616,-26.34082 -1.19181,-1.45854 -2.58384,-2.74131 -3.87576,-4.11197 -6.99051,-6.72379 -15.92034,-10.52874 -24.57884,-14.56369 -10.79277,-5.02954 -4.88688,-2.29878 -15.67581,-7.25467 -9.35298,-4.6897 -19.76334,-8.72717 -26.78709,-16.80378 -3.96061,-7.3719 -3.60011,-16.47052 -3.24892,-24.61869 0.2631,-9.0411 1.66502,-17.78852 5.35452,-26.06218 2.49285,-5.56615 5.74625,-10.80634 9.28841,-15.76591 0.65772,-0.68166 1.22215,-1.46772 1.97316,-2.04499 0.83567,-0.64236 3.64618,-2.11665 2.74019,-1.578 -7.8141,4.64575 -15.74319,9.10144 -23.46474,13.89946 -1.10858,0.68885 2.3889,-1.05265 3.59455,-1.55252 2.52448,-1.04665 4.57464,-1.80212 7.11813,-2.76591 6.57814,-2.56261 13.33952,-4.64961 19.82911,-7.42993 15.86076,-8.0209 33.63836,-15.29471 43.75966,-30.488428 3.29053,-6.190484 5.73003,-12.674166 7.0949,-19.542235 0.75767,-2.939109 0.35245,-5.449053 -0.90892,-8.12911 0,0 -27.6301,15.661489 -27.6301,15.661489 v 0 c 0.96701,1.992292 0.72323,4.020485 0.27229,6.157751 -1.36231,6.43604 -3.70216,12.605458 -7.28008,18.158993 -2.48729,3.11068 -5.04242,5.86033 -8.20894,8.30819 -1.02491,0.7923 -4.30762,2.86902 -3.17251,2.24475 51.69407,-28.429909 27.92382,-15.771885 20.39152,-11.77379 -6.19344,3.37576 -13.17921,4.9482 -19.67145,7.68551 -16.18199,5.87919 -34.13742,12.16393 -45.18856,25.73281 -3.35286,5.14833 -6.52654,10.45777 -8.69355,16.23025 -3.16967,8.6625 -4.37007,17.64693 -4.53371,26.86122 -0.24477,8.84813 -0.75881,19.11591 3.9061,26.94849 7.62985,8.39942 18.78901,12.23417 28.79681,17.02065 13.37707,6.09409 27.5345,11.70185 38.80785,21.33095 7.62967,8.39539 12.13518,16.80037 12.48779,28.43705 0.40169,11.90923 -0.1643,22.10544 -8.33693,31.53458 -7.4701,7.69959 -15.85602,14.5012 -24.4419,20.91909 -3.06263,2.50207 -4.38073,3.36798 -6.981,6.28726 -4.83258,5.42547 -7.88945,12.07969 -11.04775,18.54186 -4.93852,12.12667 -9.11472,24.53572 -13.93037,36.71184 0,0 28.7762,-13.75667 28.7762,-13.75667 z" />
  <path style="fill:#f2ebfb;fill-opacity:0.56960624;fill-rule:evenodd;stroke-width:10.0006;stroke-linejoin:round;stop-color:#000000" id="path939" d="m 506.2706,363.82749 c 0.76227,-10.93487 4.58803,-21.1822 9.67406,-30.77764 5.82866,-9.38666 14.42002,-16.44366 22.75048,-23.50092 9.60115,-8.8393 15.09611,-17.82092 19.0799,-30.15037 1.23635,-5.51351 3.64348,-11.80138 2.01007,-17.53985 -0.62445,-2.19379 -1.92181,-3.8574 -3.14613,-5.72184 -3.64535,-4.79644 -8.16535,-8.7759 -11.2103,-14.01234 -2.50654,-3.64927 -3.00824,-8.0688 -4.11788,-12.23944 0,0 -27.61107,15.01727 -27.61107,15.01727 v 0 c 1.26195,4.4116 1.89435,9.12951 4.52278,13.00942 3.24312,5.14661 7.67442,9.22932 11.40433,14.00221 0.81661,1.28667 2.05124,2.98342 2.47202,4.51966 1.42494,5.2023 -0.60206,10.88176 -1.83807,15.85135 -4.29761,11.67239 -10.30433,20.58982 -19.83892,28.71 -8.4156,7.19439 -16.78971,14.63136 -22.10252,24.53428 -4.97637,10.25408 -8.53799,21.07075 -10.32439,32.35605 0,0 28.27564,-14.05784 28.27564,-14.05784 z" />
</svg>
